<svg xmlns="http://www.w3.org/2000/svg" xmlns:xlink="http://www.w3.org/1999/xlink" width="19" height="18.967" viewBox="0 0 19 18.967"><defs><style>.a{fill:url(#a);}.b{clip-path:url(#b);}</style><linearGradient id="a" x1="0.166" y1="0.174" x2="0.882" y2="0.89" gradientUnits="objectBoundingBox"><stop offset="0" stop-color="#9d46c1"/><stop offset="1" stop-color="#055481"/></linearGradient><clipPath id="b"><path class="a" d="M2781.247,3162.791a5.938,5.938,0,1,1,5.938,5.927,5.94,5.94,0,0,1-5.938-5.927m-1.583,0a7.516,7.516,0,0,0,12.246,5.833l5.52,5.51a.4.4,0,0,0,.56,0l.559-.559a.4.4,0,0,0,0-.559l-5.519-5.51a7.513,7.513,0,1,0-13.365-4.716" transform="translate(-2779.664 -3155.283)"/></clipPath></defs><g transform="translate(-2779.664 -3155.283)"><g class="b" transform="translate(2779.664 3155.283)"><rect class="a" width="19.039" height="19.005" transform="translate(0 0)"/></g></g></svg>